<svg width="13.750000" height="13.750000" viewBox="0 0 13.75 13.75" fill="none" xmlns="http://www.w3.org/2000/svg" xmlns:xlink="http://www.w3.org/1999/xlink">
	<desc>
			Created with Pixso.
	</desc>
	<defs/>
	<path id="Vector 431 (Stroke)" d="M3.75 0L13.12 0C13.29 0 13.45 0.06 13.56 0.18C13.68 0.3 13.75 0.45 13.75 0.62L13.75 10C13.75 10.34 13.46 10.62 13.12 10.62C12.78 10.62 12.5 10.34 12.5 10L12.5 2.13L1.06 13.56C0.82 13.81 0.42 13.81 0.18 13.56C-0.07 13.32 -0.07 12.92 0.18 12.68L11.61 1.25L3.75 1.25C3.4 1.25 3.12 0.97 3.12 0.62C3.12 0.27 3.4 0 3.75 0Z" fill="#FFD11A" fill-opacity="1.000000" fill-rule="evenodd"/>
</svg>
